<svg xmlns="http://www.w3.org/2000/svg" viewBox="0 0 200 240" width="200" height="240">
  <!-- BART · état « en gonflage ». Mis à l'échelle en jeu selon le SEUL nombre de pompes,
       depuis le nœud (100,188) : la taille ne dit jamais rien du point d'éclatement. -->
  <path d="M100 14 C145 14 176 48 176 92 C176 136 138 170 100 178 C62 170 24 136 24 92 C24 48 55 14 100 14 Z"
        fill="#E8388F" stroke="#1F1B4D" stroke-width="6" stroke-linejoin="round"/>
  <path d="M150 38 C174 62 178 112 148 150 C160 114 162 74 150 38 Z" fill="#C21F74" opacity="0.55"/>
  <ellipse cx="66" cy="58" rx="15" ry="26" transform="rotate(-25 66 58)" fill="#FFFFFF" opacity="0.9"/>
  <circle cx="54" cy="98" r="6" fill="#FFFFFF" opacity="0.8"/>
  <path d="M92 176 L100 190 L108 176 Z" fill="#C21F74" stroke="#1F1B4D" stroke-width="5" stroke-linejoin="round"/>
  <path d="M100 190 C92 204 110 214 100 236" fill="none" stroke="#1F1B4D" stroke-width="4" stroke-linecap="round"/>
</svg>
